<svg width="800" height="600" viewBox="0 0 800 600" xmlns="http://www.w3.org/2000/svg">
  <defs>
    <linearGradient id="recycle-bg" x1="0" y1="0" x2="0" y2="1">
      <stop offset="0%" stop-color="#e3fdfd"/>
      <stop offset="100%" stop-color="#ffe6fa"/>
    </linearGradient>
    <linearGradient id="recycle-ground" x1="0" y1="0" x2="1" y2="0">
      <stop offset="0%" stop-color="#72efdd"/>
      <stop offset="100%" stop-color="#56cfe1"/>
    </linearGradient>
    <linearGradient id="bin-body" x1="0" y1="0" x2="0" y2="1">
      <stop offset="0%" stop-color="#42a5f5"/>
      <stop offset="100%" stop-color="#1e88e5"/>
    </linearGradient>
  </defs>
  <rect width="800" height="600" fill="url(#recycle-bg)"/>
  <g transform="translate(0,420)">
    <rect width="800" height="180" fill="url(#recycle-ground)"/>
    <rect y="120" width="800" height="60" fill="#48bfe3" opacity="0.5"/>
  </g>
  <g transform="translate(120,150)">
    <rect x="70" y="90" width="200" height="260" rx="30" fill="url(#bin-body)"/>
    <rect x="90" y="70" width="160" height="50" rx="20" fill="#90caf9"/>
    <rect x="110" y="115" width="120" height="170" rx="18" fill="#bbdefb" opacity="0.8"/>
    <path d="M150 210 L210 210 L180 250 L120 250 Z" fill="#fff" opacity="0.9"/>
    <path d="M175 170 L195 200 L155 200 Z" fill="#fff" opacity="0.9"/>
    <circle cx="170" cy="170" r="80" fill="none" stroke="#fff" stroke-width="12"/>
    <path d="M140 130 L190 130 L165 90 Z" fill="#fff"/>
  </g>
  <g transform="translate(420,140)">
    <rect x="60" y="100" width="210" height="280" rx="35" fill="#95d5b2"/>
    <rect x="85" y="80" width="160" height="60" rx="25" fill="#d9f7be"/>
    <rect x="105" y="130" width="120" height="190" rx="22" fill="#f0fff4"/>
    <path d="M165 170 L200 230 L130 230 Z" fill="#00a896" opacity="0.9"/>
    <path d="M170 265 L205 205 L235 250 Z" fill="#02c39a" opacity="0.9"/>
    <path d="M150 260 L110 210 L90 260 Z" fill="#02c39a" opacity="0.9"/>
    <circle cx="165" cy="230" r="84" fill="none" stroke="#00a896" stroke-width="12"/>
  </g>
  <g transform="translate(140,430)">
    <ellipse cx="120" cy="90" rx="120" ry="35" fill="#48bfe3" opacity="0.5"/>
    <rect x="90" width="60" height="140" rx="28" fill="#ff9f1c"/>
    <rect x="170" y="10" width="50" height="120" rx="20" fill="#ffd166"/>
    <rect x="40" y="20" width="50" height="100" rx="20" fill="#06d6a0"/>
  </g>
  <g transform="translate(480,430)">
    <ellipse cx="100" cy="80" rx="110" ry="30" fill="#80ed99" opacity="0.5"/>
    <rect x="65" width="70" height="120" rx="26" fill="#ef476f"/>
    <rect x="140" y="15" width="45" height="100" rx="18" fill="#ffd166"/>
    <rect x="25" y="25" width="45" height="90" rx="18" fill="#118ab2"/>
  </g>
  <g>
    <circle cx="650" cy="110" r="20" fill="#fff" opacity="0.7"/>
    <circle cx="675" cy="140" r="16" fill="#fff" opacity="0.6"/>
    <circle cx="615" cy="135" r="14" fill="#fff" opacity="0.6"/>
  </g>
  <g>
    <circle cx="210" cy="100" r="18" fill="#fff" opacity="0.6"/>
    <circle cx="250" cy="120" r="15" fill="#fff" opacity="0.6"/>
    <circle cx="280" cy="90" r="12" fill="#fff" opacity="0.5"/>
  </g>
  <g transform="translate(50,90)">
    <path d="M0 40 C 60 0, 120 0, 180 35" stroke="#42a5f5" stroke-width="6" stroke-linecap="round" fill="none" opacity="0.6"/>
    <path d="M210 45 C 270 10, 330 15, 390 40" stroke="#00a896" stroke-width="6" stroke-linecap="round" fill="none" opacity="0.6"/>
  </g>
</svg>
