<svg width="800" height="600" viewBox="0 0 800 600" xmlns="http://www.w3.org/2000/svg">
  <defs>
    <linearGradient id="renewable-sky" x1="0" y1="0" x2="0" y2="1">
      <stop offset="0%" stop-color="#a0f1ff"/>
      <stop offset="100%" stop-color="#fef9c7"/>
    </linearGradient>
    <linearGradient id="renewable-ground" x1="0" y1="0" x2="1" y2="0">
      <stop offset="0%" stop-color="#b5f2a8"/>
      <stop offset="100%" stop-color="#6ede8a"/>
    </linearGradient>
    <radialGradient id="renewable-sun" cx="0.1" cy="0.1" r="0.35">
      <stop offset="0%" stop-color="#fff3a3"/>
      <stop offset="100%" stop-color="#ffaf45"/>
    </radialGradient>
  </defs>
  <rect width="800" height="600" fill="url(#renewable-sky)"/>
  <circle cx="120" cy="120" r="90" fill="url(#renewable-sun)" opacity="0.85"/>
  <g transform="translate(0,420)">
    <rect width="800" height="180" fill="url(#renewable-ground)"/>
    <rect y="120" width="800" height="60" fill="#87e293" opacity="0.6"/>
  </g>
  <g transform="translate(120,260)">
    <rect x="0" y="0" width="140" height="140" rx="30" fill="#ffd166"/>
    <rect x="12" y="12" width="116" height="116" rx="24" fill="#fff3b0"/>
    <rect x="36" y="36" width="68" height="68" rx="16" fill="#f8961e"/>
    <path d="M70 20 L95 60 L70 100 L45 60 Z" fill="#ff6f3c"/>
    <rect x="50" y="140" width="40" height="90" fill="#6c584c"/>
    <rect x="40" y="230" width="60" height="60" rx="20" fill="#ffd166"/>
  </g>
  <g transform="translate(320,220)">
    <path d="M70 0 L130 200 L10 200 Z" fill="#f0f5f9" stroke="#9ec5d8" stroke-width="6" stroke-linejoin="round"/>
    <circle cx="70" cy="200" r="26" fill="#6c757d"/>
    <rect x="58" y="210" width="24" height="70" rx="10" fill="#adb5bd"/>
    <circle cx="70" cy="200" r="16" fill="#fff"/>
    <path d="M70 30 L105 160 L35 160 Z" fill="#c7e3ff"/>
  </g>
  <g transform="translate(520,220)">
    <path d="M70 0 L130 200 L10 200 Z" fill="#f0f5f9" stroke="#9ec5d8" stroke-width="6" stroke-linejoin="round"/>
    <circle cx="70" cy="200" r="26" fill="#6c757d"/>
    <rect x="58" y="210" width="24" height="70" rx="10" fill="#adb5bd"/>
    <circle cx="70" cy="200" r="16" fill="#fff"/>
    <path d="M70 30 L105 160 L35 160 Z" fill="#c7e3ff"/>
  </g>
  <g transform="translate(200,360)">
    <rect x="0" y="0" width="80" height="140" rx="20" fill="#4dabf7"/>
    <rect x="10" y="10" width="60" height="120" rx="16" fill="#cbe7ff"/>
    <rect x="30" y="125" width="20" height="80" fill="#495057"/>
    <rect x="15" y="-60" width="50" height="60" rx="18" fill="#9d4edd"/>
    <circle cx="40" cy="-80" r="24" fill="#c77dff"/>
    <circle cx="40" cy="-80" r="12" fill="#fff"/>
  </g>
  <g transform="translate(600,360)">
    <rect x="0" y="0" width="80" height="140" rx="20" fill="#ff6f91"/>
    <rect x="10" y="10" width="60" height="120" rx="16" fill="#ffe0f7"/>
    <rect x="30" y="125" width="20" height="80" fill="#495057"/>
    <rect x="15" y="-60" width="50" height="60" rx="18" fill="#06d6a0"/>
    <circle cx="40" cy="-80" r="24" fill="#4cc9f0"/>
    <circle cx="40" cy="-80" r="12" fill="#fff"/>
  </g>
  <g transform="translate(420,430)">
    <ellipse cx="0" cy="80" rx="120" ry="40" fill="#52b788" opacity="0.5"/>
    <rect x="-20" y="20" width="40" height="120" rx="16" fill="#2d6a4f"/>
    <rect x="-60" y="140" width="120" height="50" rx="20" fill="#95d5b2"/>
    <path d="M-20 0 C 10 -50, 40 -50, 70 10 C 90 45, 60 80, 30 85 C 10 90, -10 60, -20 0" fill="#08b2e3"/>
    <circle cx="0" cy="40" r="12" fill="#fff"/>
    <circle cx="30" cy="40" r="12" fill="#fff"/>
    <circle cx="-30" cy="40" r="12" fill="#fff"/>
  </g>
  <g>
    <circle cx="600" cy="120" r="20" fill="#fff" opacity="0.7"/>
    <circle cx="630" cy="140" r="16" fill="#fff" opacity="0.6"/>
    <circle cx="570" cy="135" r="14" fill="#fff" opacity="0.5"/>
  </g>
  <g>
    <circle cx="260" cy="110" r="18" fill="#fff" opacity="0.6"/>
    <circle cx="290" cy="130" r="15" fill="#fff" opacity="0.5"/>
    <circle cx="320" cy="100" r="12" fill="#fff" opacity="0.5"/>
  </g>
</svg>
